<mxfile host="65bd71144e">
    <diagram id="pbClgvISly6ZTAEot4hW" name="Page-1">
        <mxGraphModel dx="827" dy="791" grid="1" gridSize="10" guides="1" tooltips="1" connect="1" arrows="1" fold="1" page="1" pageScale="1" pageWidth="850" pageHeight="1100" math="0" shadow="0">
            <root>
                <mxCell id="0"/>
                <mxCell id="1" parent="0"/>
                <mxCell id="8" value="&lt;span style=&quot;font-size: 12px;&quot;&gt;Entry:&lt;br style=&quot;font-size: 12px;&quot;&gt;&amp;nbsp; &amp;nbsp; Reset success/failure counter.&lt;br style=&quot;font-size: 12px;&quot;&gt;&lt;br&gt;Success:&lt;/span&gt;&lt;br style=&quot;border-color: var(--border-color); font-size: 12px;&quot;&gt;&lt;span style=&quot;font-size: 12px;&quot;&gt;&amp;nbsp; &amp;nbsp; Count success.&lt;/span&gt;&lt;br style=&quot;border-color: var(--border-color); font-size: 12px;&quot;&gt;&lt;span style=&quot;font-size: 12px;&quot;&gt;Failed:&lt;/span&gt;&lt;br style=&quot;border-color: var(--border-color); font-size: 12px;&quot;&gt;&lt;span style=&quot;border-color: var(--border-color); font-size: 12px;&quot;&gt;&amp;nbsp; &amp;nbsp; Count failure.&lt;/span&gt;&lt;br style=&quot;border-color: var(--border-color); font-size: 12px;&quot;&gt;&lt;span style=&quot;border-color: var(--border-color); font-size: 12px;&quot;&gt;&amp;nbsp; &amp;nbsp; Check threshold.&lt;/span&gt;" style="rounded=1;whiteSpace=wrap;html=1;fontSize=12;fillColor=#dae8fc;strokeColor=#6c8ebf;fontStyle=0;align=left;spacing=10;arcSize=10;" vertex="1" parent="1">
                    <mxGeometry x="320" y="500" width="200" height="140" as="geometry"/>
                </mxCell>
                <mxCell id="7" value="Entry:&lt;br&gt;&amp;nbsp; &amp;nbsp; Reset and start a timer.&lt;br&gt;&amp;nbsp; &amp;nbsp; Wait until the timer timeouts." style="rounded=1;whiteSpace=wrap;html=1;fontSize=12;fillColor=#dae8fc;strokeColor=#6c8ebf;fontStyle=0;arcSize=7;align=left;spacing=10;" vertex="1" parent="1">
                    <mxGeometry x="520" y="740" width="200" height="140" as="geometry"/>
                </mxCell>
                <mxCell id="6" value="&lt;font style=&quot;font-size: 12px; font-weight: normal;&quot;&gt;Entry:&lt;br style=&quot;font-size: 12px;&quot;&gt;&amp;nbsp; &amp;nbsp; Reset success/failure counter.&lt;br style=&quot;font-size: 12px;&quot;&gt;&lt;br style=&quot;font-size: 12px;&quot;&gt;Success:&lt;br style=&quot;font-size: 12px;&quot;&gt;&amp;nbsp; &amp;nbsp; Count success.&lt;br style=&quot;font-size: 12px;&quot;&gt;&amp;nbsp; &amp;nbsp; Check threshold.&lt;br style=&quot;font-size: 12px;&quot;&gt;Failed:&lt;br style=&quot;font-size: 12px;&quot;&gt;&amp;nbsp; &amp;nbsp; Transit to Open state.&lt;/font&gt;" style="rounded=1;whiteSpace=wrap;html=1;fontSize=12;fillColor=#dae8fc;strokeColor=#6c8ebf;fontStyle=1;align=left;spacing=10;arcSize=8;" vertex="1" parent="1">
                    <mxGeometry x="120" y="740" width="200" height="140" as="geometry"/>
                </mxCell>
                <mxCell id="3" value="Closed" style="rounded=1;whiteSpace=wrap;html=1;fontSize=14;fillColor=#dae8fc;strokeColor=#6c8ebf;fontStyle=1" parent="1" vertex="1">
                    <mxGeometry x="360" y="480" width="120" height="30" as="geometry"/>
                </mxCell>
                <mxCell id="4" value="Half-Open" style="rounded=1;whiteSpace=wrap;html=1;fontSize=14;fillColor=#dae8fc;strokeColor=#6c8ebf;fontStyle=1" parent="1" vertex="1">
                    <mxGeometry x="160" y="720" width="120" height="30" as="geometry"/>
                </mxCell>
                <mxCell id="5" value="Open" style="rounded=1;whiteSpace=wrap;html=1;fontSize=14;fillColor=#dae8fc;strokeColor=#6c8ebf;fontStyle=1" parent="1" vertex="1">
                    <mxGeometry x="560" y="720" width="120" height="30" as="geometry"/>
                </mxCell>
                <mxCell id="9" value="" style="curved=1;endArrow=classic;html=1;exitX=0.75;exitY=0;exitDx=0;exitDy=0;" edge="1" parent="1" source="10">
                    <mxGeometry width="50" height="50" relative="1" as="geometry">
                        <mxPoint x="240" y="440" as="sourcePoint"/>
                        <mxPoint x="330" y="490" as="targetPoint"/>
                        <Array as="points">
                            <mxPoint x="300" y="430"/>
                        </Array>
                    </mxGeometry>
                </mxCell>
                <mxCell id="10" value="Initial state" style="text;html=1;strokeColor=none;fillColor=none;align=center;verticalAlign=middle;whiteSpace=wrap;rounded=0;" vertex="1" parent="1">
                    <mxGeometry x="200" y="460" width="80" height="20" as="geometry"/>
                </mxCell>
                <mxCell id="14" value="" style="shape=flexArrow;endArrow=classic;html=1;width=6.857142857142857;endSize=3.902857142857143;endWidth=10.938775510204081;fillColor=#d5e8d4;strokeColor=#82b366;" edge="1" parent="1">
                    <mxGeometry width="50" height="50" relative="1" as="geometry">
                        <mxPoint x="270" y="710" as="sourcePoint"/>
                        <mxPoint x="320" y="650" as="targetPoint"/>
                    </mxGeometry>
                </mxCell>
                <mxCell id="15" value="" style="shape=flexArrow;endArrow=classic;html=1;width=6.857142857142857;endSize=3.902857142857143;endWidth=10.938775510204081;fillColor=#f8cecc;strokeColor=#b85450;" edge="1" parent="1">
                    <mxGeometry width="50" height="50" relative="1" as="geometry">
                        <mxPoint x="530" y="650" as="sourcePoint"/>
                        <mxPoint x="570" y="710" as="targetPoint"/>
                    </mxGeometry>
                </mxCell>
                <mxCell id="16" value="" style="shape=flexArrow;endArrow=classic;html=1;width=6.857142857142857;endSize=3.902857142857143;endWidth=10.938775510204081;fillColor=#d5e8d4;strokeColor=#82b366;" edge="1" parent="1">
                    <mxGeometry width="50" height="50" relative="1" as="geometry">
                        <mxPoint x="500" y="800" as="sourcePoint"/>
                        <mxPoint x="340" y="800" as="targetPoint"/>
                    </mxGeometry>
                </mxCell>
                <mxCell id="17" value="" style="shape=flexArrow;endArrow=classic;html=1;width=6.857142857142857;endSize=3.902857142857143;endWidth=10.938775510204081;fillColor=#f8cecc;strokeColor=#b85450;" edge="1" parent="1">
                    <mxGeometry width="50" height="50" relative="1" as="geometry">
                        <mxPoint x="340" y="840" as="sourcePoint"/>
                        <mxPoint x="500" y="840" as="targetPoint"/>
                    </mxGeometry>
                </mxCell>
                <mxCell id="18" value="Timeout" style="text;html=1;strokeColor=none;fillColor=none;align=center;verticalAlign=middle;whiteSpace=wrap;rounded=0;" vertex="1" parent="1">
                    <mxGeometry x="390" y="780" width="60" height="10" as="geometry"/>
                </mxCell>
                <mxCell id="19" value="Failure" style="text;html=1;strokeColor=none;fillColor=none;align=center;verticalAlign=middle;whiteSpace=wrap;rounded=0;" vertex="1" parent="1">
                    <mxGeometry x="390" y="820" width="60" height="10" as="geometry"/>
                </mxCell>
                <mxCell id="20" value="Success threshold exceeded" style="text;html=1;strokeColor=none;fillColor=none;align=center;verticalAlign=middle;whiteSpace=wrap;rounded=0;" vertex="1" parent="1">
                    <mxGeometry x="200" y="640" width="80" height="40" as="geometry"/>
                </mxCell>
                <mxCell id="21" value="Failure threshold exceeded" style="text;html=1;strokeColor=none;fillColor=none;align=center;verticalAlign=middle;whiteSpace=wrap;rounded=0;" vertex="1" parent="1">
                    <mxGeometry x="560" y="640" width="80" height="40" as="geometry"/>
                </mxCell>
            </root>
        </mxGraphModel>
    </diagram>
</mxfile>